<?xml version="1.0" encoding="UTF-8" standalone="no"?>
<svg
   width="500"
   zoomAndPan="magnify"
   viewBox="0 0 375 374.99999"
   height="500"
   preserveAspectRatio="xMidYMid"
   version="1.0"
   id="svg196"
   sodipodi:docname="leandro-black.svg"
   inkscape:export-filename="../../../Downloads/leandro-black-fundoTransparent.svg"
   inkscape:export-xdpi="96"
   inkscape:export-ydpi="96"
   inkscape:version="1.2.2 (b0a8486541, 2022-12-01)"
   xmlns:inkscape="http://www.inkscape.org/namespaces/inkscape"
   xmlns:sodipodi="http://sodipodi.sourceforge.net/DTD/sodipodi-0.dtd"
   xmlns="http://www.w3.org/2000/svg"
   xmlns:svg="http://www.w3.org/2000/svg">
  <sodipodi:namedview
     id="namedview198"
     pagecolor="#ffffff"
     bordercolor="#666666"
     borderopacity="1.0"
     inkscape:showpageshadow="2"
     inkscape:pageopacity="0.0"
     inkscape:pagecheckerboard="0"
     inkscape:deskcolor="#d1d1d1"
     showgrid="false"
     inkscape:zoom="0.69296465"
     inkscape:cx="307.37499"
     inkscape:cy="288.61501"
     inkscape:window-width="1366"
     inkscape:window-height="699"
     inkscape:window-x="0"
     inkscape:window-y="0"
     inkscape:window-maximized="1"
     inkscape:current-layer="svg196" />
  <defs
     id="defs188">
    <linearGradient
       id="linearGradient4272"
       inkscape:swatch="solid">
      <stop
         style="stop-color:#cfb948;stop-opacity:1;"
         offset="0"
         id="stop4270" />
    </linearGradient>
    <linearGradient
       id="linearGradient4264"
       inkscape:swatch="solid">
      <stop
         style="stop-color:#000000;stop-opacity:1;"
         offset="0"
         id="stop4262" />
    </linearGradient>
    <linearGradient
       id="linearGradient4225"
       inkscape:swatch="solid">
      <stop
         style="stop-color:#000000;stop-opacity:1;"
         offset="0"
         id="stop4223" />
    </linearGradient>
    <inkscape:path-effect
       effect="bspline"
       id="path-effect662"
       is_visible="true"
       lpeversion="1"
       weight="33.333333"
       steps="2"
       helper_size="0"
       apply_no_weight="true"
       apply_with_weight="true"
       only_selected="false" />
    <inkscape:path-effect
       effect="spiro"
       id="path-effect646"
       is_visible="true"
       lpeversion="1" />
    <inkscape:path-effect
       effect="bspline"
       id="path-effect642"
       is_visible="true"
       lpeversion="1"
       weight="33.333333"
       steps="2"
       helper_size="0"
       apply_no_weight="true"
       apply_with_weight="true"
       only_selected="false" />
    <inkscape:path-effect
       effect="bspline"
       id="path-effect638"
       is_visible="true"
       lpeversion="1"
       weight="33.333333"
       steps="2"
       helper_size="0"
       apply_no_weight="true"
       apply_with_weight="true"
       only_selected="false" />
    <inkscape:path-effect
       effect="spiro"
       id="path-effect597"
       is_visible="true"
       lpeversion="1" />
  </defs>
  <path
     style="fill:#000000;fill-opacity:0;stroke:none;stroke-width:4.19325;stroke-linecap:butt;stroke-linejoin:miter;stroke-dasharray:none;stroke-opacity:1"
     d="M 324.05671,36.311675 223.55513,177.9244 206.15705,166.53582 295.55281,45.29143 C 280.26349,36.504996 263.5152,30.264249 246.20428,26.903176 c -26.17401,-5.081923 -53.49688,-3.523472 -79.2044,3.5496 -34.93906,9.613005 -66.94213,29.450275 -91.399251,56.189707 -18.051242,19.735767 -32.05812,43.220167 -40.393577,68.634097 -9.672316,29.48987 -11.616329,61.35393 -6.599395,91.98132 6.539451,39.92205 24.971977,77.81953 52.339763,107.61112"
     id="path595"
     inkscape:path-effect="#path-effect597"
     inkscape:original-d="M 324.05671,36.311675 223.55513,177.9244 206.15705,166.53582 295.55281,45.29143 c 0,0 -32.89809,-12.257877 -49.34853,-18.388254 -16.45046,-6.130379 -52.802,2.36736 -79.2044,3.5496 C 140.59747,31.635017 106.06799,67.913541 75.600629,86.642483 45.13327,105.37143 48.67252,132.3995 35.207052,155.27658 c -13.465467,22.87707 -4.398655,61.32184 -6.599395,91.98132 -2.20074,30.65949 34.89411,71.7417 52.339763,107.61112" />
  <path
     style="fill:#000000;fill-opacity:0;stroke:none;stroke-width:4.19325;stroke-linecap:butt;stroke-linejoin:miter;stroke-dasharray:none;stroke-opacity:1"
     d="M 81.034463,354.74327 65.623228,373.57498 Z"
     id="path601" />
  <path
     style="fill:#000000;fill-opacity:0;stroke:none;stroke-width:4.19325;stroke-linecap:butt;stroke-linejoin:miter;stroke-dasharray:none;stroke-opacity:1"
     d="M 65.682434,373.37642 C 59.89279,367.59918 54.102201,361.821 48.427219,354.65399 42.752238,347.48699 37.193342,338.93138 32.109713,329.39024 27.026084,319.84911 22.418235,309.32301 18.25831,297.23885 14.098385,285.15468 10.386817,271.51321 7.9874563,260.5397 5.5880954,249.5662 4.5012257,241.26131 3.9286076,230.575 3.3559895,219.88869 3.2977813,206.82174 4.0128364,195.22371 c 0.7150551,-11.59804 2.2034367,-21.72634 4.3603101,-31.08702 2.1568735,-9.36068 4.9821675,-17.95298 7.5757965,-25.13906 2.59363,-7.18608 4.955453,-12.96544 8.501764,-19.52778 3.546311,-6.56235 8.276835,-13.90704 13.303347,-21.126144 5.026511,-7.219104 10.348667,-14.312107 16.58143,-21.590095 6.232762,-7.277988 13.375649,-14.740391 19.576557,-20.689263 6.200907,-5.948872 11.459377,-10.38379 17.234232,-14.602353 5.774855,-4.218563 12.065587,-8.220437 17.713887,-11.534016 5.64831,-3.313578 10.65376,-5.938642 15.71556,-8.150428 5.0618,-2.211785 10.17944,-4.010157 16.56947,-5.941044 6.39002,-1.930886 14.05194,-3.994189 22.34868,-5.647268 8.29674,-1.6530787 17.22767,-2.895911 25.85534,-3.6504863 8.62767,-0.7545752 16.95146,-1.0209412 25.01674,-0.8656866 8.06528,0.1552545 15.87146,0.732009 23.7394,1.7101572 7.86794,0.9781481 15.79711,2.3575115 23.06589,4.0939797 7.26878,1.736467 13.87668,3.829755 23.42755,7.518079 9.55087,3.688325 22.04408,8.971312 29.10387,12.091626 7.05979,3.120314 8.68587,4.077637 10.31086,5.03432"
     id="path636"
     inkscape:path-effect="#path-effect638"
     inkscape:original-d="M 65.682434,373.37642 C 59.892781,367.59919 54.102188,361.82101 48.310645,356.04185 42.752465,347.48684 37.193566,338.93123 31.633614,330.37448 27.026522,319.84892 22.418672,309.32282 17.809789,298.79555 14.099016,285.15451 10.387451,271.51304 6.6748677,257.87034 5.5888982,249.56609 4.502028,241.2612 3.4141956,232.95519 3.3569243,219.88869 3.2987234,206.82174 3.2395678,193.75358 c 1.4893833,-10.12775 2.9777642,-20.25605 4.465233,-30.3855 2.8263522,-8.5917 5.6516492,-17.184 8.4760592,-25.77744 2.362858,-5.77862 4.724677,-11.55798 7.085603,-17.3384 4.731656,-7.34403 9.462181,-14.68872 14.19186,-22.034519 5.323308,-7.092319 10.645462,-14.185324 15.96678,-21.279426 7.144115,-7.461742 14.287001,-14.924146 21.429089,-22.387659 5.25962,-4.434136 10.518089,-8.869055 15.775727,-13.305023 6.291913,-4.001075 12.582641,-8.002949 18.872561,-12.005864 5.00659,-2.624208 10.01204,-5.249272 15.01665,-7.875349 5.11879,-1.797482 10.23643,-3.595855 15.35322,-5.395222 7.66317,-2.062423 15.32509,-4.125726 22.98621,-6.1900293 8.9322,-1.2419195 17.86313,-2.4847494 26.79328,-3.7285653 8.32507,-0.2654167 16.64886,-0.5317835 24.97189,-0.7991145 7.80743,0.5777376 15.61361,1.154493 23.41901,1.7302983 7.93042,1.3803786 15.85959,2.7597418 23.78798,4.1381718 6.60911,2.094331 13.21701,4.18762 19.8241,6.27999 12.49464,5.284157 24.98785,10.567141 37.48036,15.849271 1.62709,0.958322 3.25317,1.915646 4.87834,2.872028" />
  <path
     style="fill:#000000;fill-opacity:0;stroke:none;stroke-width:4.19325;stroke-linecap:butt;stroke-linejoin:miter;stroke-dasharray:none;stroke-opacity:1"
     d="m 16.052052,137.63048 c 3.118749,-7.0169 6.237692,-14.03423 8.90776,-19.3339 2.670068,-5.29968 4.891132,-8.88136 7.633599,-13.00993 2.742466,-4.12857 6.00613,-8.803694 9.125068,-13.073908 3.118938,-4.270214 6.092936,-8.135211 9.091105,-11.852767 2.998168,-3.717556 6.020296,-7.2874 8.447978,-9.99856 2.427681,-2.711161 4.260716,-4.563413 6.800195,-7.092799 2.539478,-2.529386 5.785217,-5.735725 9.066435,-8.786763 3.281218,-3.051037 6.597661,-5.946544 10.276293,-8.866306 3.678632,-2.919762 7.719118,-5.863534 11.194399,-8.32214 3.475286,-2.458605 6.385106,-4.431878 9.570766,-6.349114 3.18565,-1.917236 6.64682,-3.77829 10.28842,-5.588646 3.64161,-1.810355 7.46337,-3.569902 11.61419,-5.249643 4.15083,-1.679742 8.63036,-3.279584 12.92505,-4.697824 4.2947,-1.418239 8.40424,-2.654806 12.6001,-3.667161 4.19587,-1.012356 8.47768,-1.8004914 11.67368,-2.3454092 3.196,-0.5449178 5.30599,-0.8466163 8.14614,-1.242781 2.84016,-0.3961648 6.4103,-0.8867745 10.50894,-1.2902462 4.09864,-0.4034717 8.72543,-0.7198309 13.76025,-0.9219232 5.03481,-0.2020923 10.47727,-0.2899511 14.47656,-0.3124922 3.9993,-0.022541 6.55517,0.020204 10.46642,0.2367876 3.91126,0.2165834 9.17757,0.6069287 13.44597,1.0514688 4.2684,0.4445401 7.53859,0.943158 10.6058,1.4737931 3.06721,0.530635 5.93123,1.0932029 9.03096,1.7585003 3.09973,0.665298 6.43498,1.433244 9.82899,2.355895 3.394,0.922652 6.84655,1.999857 10.30693,3.154204 3.46038,1.154348 6.9284,2.385723 11.21301,4.044695 4.2846,1.658971 9.3855,3.745363 13.70831,5.559956 4.32281,1.814592 7.86729,3.357254 10.64896,4.573105 2.78167,1.215851 4.80037,2.104815 6.80236,3.109818 2.00198,1.005004 3.98714,2.125848 5.97123,3.246084"
     id="path640"
     inkscape:path-effect="#path-effect642"
     inkscape:original-d="m 16.052052,137.63048 c 3.11989,-7.01639 6.238838,-14.03372 9.356843,-21.05203 2.222098,-3.58086 4.443163,-7.16254 6.663331,-10.74526 3.264736,-4.67435 6.528399,-9.349477 9.791185,-14.025654 2.97506,-3.864197 5.949056,-7.729195 8.922175,-11.595227 3.023182,-3.56903 6.045318,-7.138867 9.06656,-10.709741 1.834053,-1.851368 3.667089,-3.703619 5.499219,-5.55687 3.246816,-3.205511 6.492556,-6.411849 9.737413,-9.61921 3.317515,-2.894661 6.633958,-5.790168 9.949524,-8.686691 4.0416,-2.942935 8.082082,-5.886712 12.121722,-8.831509 2.910886,-1.972389 5.820716,-3.945659 8.729646,-5.919929 3.46224,-1.860165 6.92341,-3.721215 10.38369,-5.583262 3.82285,-1.758655 7.64461,-3.5182 11.46549,-5.278739 4.48065,-1.598946 8.96018,-3.198789 13.43886,-4.799623 4.11064,-1.235654 8.22018,-2.472219 12.32885,-3.709769 4.28292,-0.787205 8.56473,-1.5753407 12.84568,-2.364453 2.111,-0.3007488 4.22099,-0.6024465 6.33007,-0.9051098 3.57123,-0.4896696 7.14137,-0.9802803 10.71065,-1.4718605 4.62792,-0.3154121 9.25471,-0.6317718 13.88067,-0.9490983 5.44362,-0.086909 10.88608,-0.1747607 16.32771,-0.2635817 2.55692,0.043704 5.11279,0.086461 7.66778,0.1282393 5.26747,0.3913216 10.53378,0.7816674 15.79926,1.1710605 3.27127,0.4995974 6.54146,0.9982153 9.81077,1.4958844 2.86508,0.5635493 5.7291,1.1261166 8.59222,1.6877351 3.33633,0.768937 6.67158,1.536884 10.00595,2.303886 3.45361,1.078204 6.90616,2.155405 10.35781,3.231667 3.4691,1.232387 6.93712,2.463764 10.40428,3.694203 5.10205,2.087437 10.20295,4.173831 15.30302,6.259305 3.54555,1.543681 7.09003,3.086343 10.63364,4.628074 2.01973,0.88996 4.03843,1.778924 6.05622,2.666945 1.9862,1.121854 3.97136,2.242702 5.95563,3.362612" />
  <path
     style="fill:#000000;fill-opacity:0;stroke:none;stroke-width:4.19325;stroke-linecap:butt;stroke-linejoin:miter;stroke-dasharray:none;stroke-opacity:1"
     d="m 159.64201,227.98727 15.76916,12.02884 0.47881,0.55986 c -3.14043,6.12429 -6.98318,11.88809 -11.42878,17.14221 -9.55702,11.29516 -22.1918,20.30479 -36.53682,23.92942 -11.41636,2.88463 -23.61899,2.26981 -34.859999,-1.23647 -7.639533,-2.38292 -14.901425,-6.10414 -21.034287,-11.24503 -9.796136,-8.21164 -16.404902,-19.82778 -19.848516,-32.13781 -3.444807,-12.3143 -3.823739,-25.66794 0.231895,-37.79479 2.937968,-8.78489 8.152299,-16.76651 14.845602,-23.17007 6.693303,-6.40357 14.843117,-11.23691 23.592417,-14.27923 14.133718,-4.91459 29.744538,-5.11003 44.222338,-1.32739 13.27778,3.46911 25.4955,10.12353 37.16585,17.34413 14.54867,9.00145 28.47248,18.96889 42.3756,28.93849 16.68083,11.96143 33.35375,23.94081 49.6424,36.43103 10.7101,8.21256 21.43775,16.75388 33.94367,21.82876 4.91745,1.99549 10.09926,3.4356 15.39497,3.78033 5.29571,0.34472 10.71853,-0.43901 15.51616,-2.7075 4.44562,-2.10205 8.24451,-5.4203 11.34234,-9.23941 3.09782,-3.81911 5.52613,-8.13785 7.66589,-12.56544 4.42053,-9.14695 7.71732,-19.27022 6.45,-29.34999 -1.11148,-8.84022 -5.65385,-16.91222 -11.09736,-23.9658 -4.19659,-5.43786 -9.12571,-10.53148 -15.3279,-13.4835 -5.90598,-2.81104 -12.71092,-3.50605 -19.16708,-2.45702 -6.45617,1.04904 -12.57199,3.78429 -17.97623,7.46895 -7.84804,5.35087 -14.17008,12.59737 -20.63152,19.55966 -2.38773,2.57281 -4.80616,5.11714 -7.2546,7.63225"
     id="path644"
     inkscape:path-effect="#path-effect646"
     inkscape:original-d="m 159.64201,227.98727 c 5.25732,4.01057 10.5137,8.02019 15.76916,12.02884 0.16054,0.18758 0.32014,0.37421 0.47881,0.55986 -3.80874,5.71515 -7.61825,11.4291 -11.42878,17.14221 -3.81054,5.71311 -24.35693,15.95391 -36.53682,23.92942 -12.17987,7.97551 -23.23906,-0.82335 -34.859999,-1.23647 -11.620929,-0.41312 -14.021917,-7.49574 -21.034287,-11.24503 -7.012379,-3.7493 -13.231405,-21.42425 -19.848516,-32.13781 -6.617113,-10.71358 0.155542,-25.19558 0.231895,-37.79479 0.0764,-12.59922 25.626289,-24.96524 38.438019,-37.4493 12.811718,-12.48407 29.482508,-0.88397 44.222338,-1.32739 14.73983,-0.44342 24.77818,11.56371 37.16585,17.34413 12.38766,5.78043 28.25134,19.29329 42.3756,28.93849 14.12425,9.64521 33.09587,24.28831 49.6424,36.43103 16.54652,12.1427 22.63005,14.55347 33.94367,21.82876 11.31362,7.27528 20.60837,0.71617 30.91113,1.07283 10.30278,0.35663 12.67311,-14.53561 19.00823,-21.80485 6.33514,-7.26922 4.30094,-19.5657 6.45,-29.34999 2.14905,-9.7843 -7.3973,-15.97623 -11.09736,-23.9658 -3.70007,-7.98956 -10.21766,-8.98805 -15.3279,-13.4835 -5.11023,-4.49547 -24.76126,3.34224 -37.14331,5.01193 -12.38204,1.66968 -13.75341,13.04073 -20.63152,19.55966 -6.87812,6.51891 -4.83546,5.08912 -7.2546,7.63225" />
  <path
     style="fill:#000000;fill-opacity:0;stroke:none;stroke-width:4.19325;stroke-linecap:butt;stroke-linejoin:miter;stroke-dasharray:none;stroke-opacity:1"
     d="M 263.98446,209.59902 248.42657,196.97683"
     id="path648" />
  <path
     style="fill:#000000;fill-opacity:0;stroke:none;stroke-width:4.19325;stroke-linecap:butt;stroke-linejoin:miter;stroke-dasharray:none;stroke-opacity:1"
     d="m 248.68428,196.76054 c 7.5869,-8.38123 15.17385,-16.76252 21.26516,-22.87832 6.0913,-6.11581 10.68663,-9.96584 15.36274,-12.78563 4.67611,-2.81979 9.43231,-4.60907 14.58149,-5.78043 5.14919,-1.17135 10.69071,-1.72481 16.54097,-1.23669 5.85026,0.48812 12.00861,2.01741 17.31527,4.08591 5.30666,2.06851 9.76133,4.67571 13.10904,6.99584 3.34771,2.32012 5.58842,4.35281 8.01088,6.91294 2.42246,2.56013 5.02666,5.64743 7.04001,8.56165 2.01334,2.91421 3.43602,5.65508 5.05335,9.82234 1.61734,4.16726 3.42946,9.76062 4.47669,14.82629 1.04723,5.06568 1.32982,9.60347 1.30737,13.83085 -0.0224,4.22738 -0.34979,8.14425 -0.84727,11.83362 -0.49748,3.68938 -1.165,7.1512 -2.70964,11.7666 -1.54464,4.6154 -3.96624,10.38439 -6.92443,15.53242 -2.9582,5.14803 -6.45289,9.67514 -10.21825,13.37266 -3.76537,3.69751 -7.80146,6.5655 -12.04849,8.71519 -4.24703,2.1497 -8.70513,3.58105 -12.63014,4.55765 -3.92502,0.97661 -7.3169,1.49834 -10.99701,1.63544 -3.68011,0.13711 -7.64845,-0.1106 -11.55091,-0.62684 -3.90246,-0.51624 -7.73889,-1.30115 -11.41525,-2.39916 -3.67637,-1.098 -7.19251,-2.50926 -10.49327,-4.01485 -3.30076,-1.50558 -6.38596,-3.10554 -9.52189,-4.92934 -3.13593,-1.82381 -6.32237,-3.87148 -10.71725,-6.69745 -4.39487,-2.82596 -9.9979,-6.43004 -15.57386,-9.93623 -5.57596,-3.50619 -11.12453,-6.91424 -17.16964,-10.99929 -6.04512,-4.08506 -12.58636,-8.84695 -19.90576,-14.39255 -7.31939,-5.5456 -15.41645,-11.87459 -24.95845,-19.01154 -9.542,-7.13694 -20.52836,-15.08135 -27.96401,-20.14697 -7.43566,-5.06562 -11.32029,-7.25206 -15.47558,-9.33583 -4.1553,-2.08376 -8.581,-4.0646 -12.53165,-5.38816 -3.95065,-1.32356 -7.42594,-1.98948 -11.04209,-2.2594 -3.61615,-0.26991 -7.37279,-0.14359 -11.58778,0.62021 -4.21499,0.7638 -8.887781,2.16518 -12.676976,3.94578 -3.789195,1.7806 -6.694143,3.94024 -8.462742,5.20564 -1.7686,1.2654 -2.400906,1.63656 -3.826191,2.93807 -1.425285,1.30151 -3.643147,3.53308 -5.646014,6.74066 -2.002867,3.20757 -3.790424,7.39046 -4.788755,11.43335 -0.998331,4.04289 -1.207536,7.94508 -1.349623,10.45735 -0.142087,2.51228 -0.217038,3.63451 0.307215,6.07796 0.524252,2.44344 1.647269,6.20767 2.969394,9.61215 1.322126,3.40448 2.843059,6.44904 4.587676,9.30766 1.744616,2.85862 3.712588,5.53121 6.306238,7.8065 2.59365,2.27529 5.812479,4.15358 9.82962,5.91151 4.017141,1.75794 8.832318,3.39569 13.261208,4.27406 4.42889,0.87837 8.47141,0.99768 12.04827,0.46625 3.57686,-0.53142 6.68834,-1.71332 9.99856,-3.59873 3.31021,-1.8854 6.8193,-4.47426 9.62691,-6.82762 2.80761,-2.35336 4.91375,-4.47122 6.789,-6.6743 1.87526,-2.20308 3.51965,-4.49144 5.26113,-6.71292 1.74149,-2.22148 3.57991,-4.37586 5.02052,-6.09077 1.4406,-1.71491 2.48334,-2.99028 3.5262,-4.26579"
     id="path660"
     inkscape:path-effect="#path-effect662"
     inkscape:original-d="m 248.68428,196.76054 c 7.5879,-8.38032 15.17485,-16.76162 22.76087,-25.14388 4.59645,-3.84922 9.19178,-7.69925 13.78626,-11.55032 4.75732,-1.78838 9.51351,-3.57767 14.26885,-5.36795 5.5427,-0.55253 11.08422,-1.106 16.62492,-1.66044 6.15955,1.53032 12.3179,3.05961 18.47543,4.58798 4.45578,2.60827 8.91045,5.21547 13.36426,7.82175 2.24174,2.03372 4.48244,4.06641 6.72225,6.09816 2.60525,3.08838 5.20945,6.17569 7.81275,9.26208 1.42367,2.74192 2.84633,5.48279 4.26809,8.22274 1.81313,5.59457 3.62526,11.18793 5.43648,16.78045 0.28355,4.53895 0.56613,9.07675 0.84779,13.61368 -0.3264,3.91797 -0.65375,7.83483 -0.98204,11.75082 -0.6666,3.46289 -1.33413,6.92471 -2.0026,10.38562 -2.42075,5.77016 -4.84234,11.53915 -7.26493,17.30729 -3.49389,4.52826 -6.98858,9.05537 -10.48429,13.58161 -4.03531,2.86905 -8.0714,5.73704 -12.10852,8.60412 -4.45734,1.43238 -8.91544,2.86373 -13.37458,4.29415 -3.39109,0.52273 -6.78297,1.04445 -10.17586,1.56523 -3.96756,-0.24676 -7.9359,-0.49447 -11.90527,-0.74313 -3.83564,-0.78397 -7.67207,-1.56888 -11.50952,-2.35477 -3.51533,-1.41035 -7.03147,-2.82162 -10.54861,-4.23387 -3.08437,-1.59905 -6.16958,-3.199 -9.25578,-4.79995 -3.18562,-2.04679 -6.37206,-4.09446 -9.55951,-6.14313 -5.6023,-3.60327 -11.20533,-7.20734 -16.80941,-10.81246 -5.54785,-3.40723 -11.09642,-6.81528 -16.64605,-10.22437 -6.54056,-4.76112 -13.0818,-9.52302 -19.62412,-14.28596 -8.09644,-6.3283 -16.19351,-12.65728 -24.29168,-18.98736 -10.98585,-7.94378 -21.97221,-15.88818 -32.95974,-23.83372 -3.88383,-2.18556 -7.76846,-4.372 -11.65412,-6.55944 -4.42495,-1.97996 -8.85065,-3.9608 -13.2774,-5.94264 -3.47449,-0.66499 -6.94978,-1.33089 -10.42608,-1.99778 -3.75583,0.12728 -7.51247,0.25362 -11.2701,0.37897 -4.67204,1.4024 -9.344829,2.80377 -14.018649,4.20421 -2.904114,2.16069 -5.809057,4.32034 -8.715006,6.47905 -0.631391,0.37214 -1.263698,0.7433 -1.896961,1.11351 -2.217021,2.23262 -4.434885,4.46419 -6.653729,6.69486 -1.78669,4.18403 -3.574256,8.36692 -5.362793,12.54896 -0.208267,3.9033 -0.417474,7.80549 -0.627626,11.7068 -0.07405,1.12325 -0.148965,2.24549 -0.224858,3.3668 1.123998,3.76533 2.247015,7.52956 3.36911,11.29289 1.521931,3.04562 3.042864,6.09018 4.562873,9.13383 1.968999,2.67367 3.936968,5.34626 5.904052,8.01795 3.219891,1.87931 6.438715,3.7576 9.656671,5.63495 4.816314,1.63878 9.631486,3.27654 14.445826,4.91336 4.04361,0.12024 8.08613,0.23959 12.12777,0.35793 3.11254,-1.18099 6.22403,-2.36288 9.33465,-3.54577 3.51016,-2.588 7.01925,-5.17686 10.52747,-7.76673 2.10717,-2.11697 4.21331,-4.23482 6.31854,-6.35368 1.64541,-2.28748 3.28979,-4.57584 4.93327,-6.86522 1.83943,-2.15349 3.67785,-4.30787 5.51535,-6.46324 1.04373,-1.27447 2.08648,-2.54983 3.12829,-3.8262" />
  <path
     style="fill:#000000;fill-opacity:0;stroke:none;stroke-width:4.19325;stroke-linecap:butt;stroke-linejoin:miter;stroke-dasharray:none;stroke-opacity:1"
     d="m 160.85924,228.91847 -1.88852,-1.79299"
     id="path672" />
  <path
     style="fill:#000000;fill-opacity:0;stroke:none;stroke-width:0;stroke-opacity:1"
     d="M 56.918706,362.46706 C 37.194805,341.50043 21.598053,310.05108 11.883991,271.65888 7.2007699,253.14971 5.44964,241.53304 4.7091915,224.06259 2.785597,178.67648 12.781329,138.32049 33.88278,106.27941 64.621369,59.605013 101.35978,29.215087 141.90199,16.926191 186.94025,3.2744835 236.18959,3.4057046 276.2427,17.284132 c 15.68929,5.436348 44.45474,17.812856 44.9661,19.346936 0.2169,0.650695 -21.63021,32.246722 -48.54914,70.213392 -26.91892,37.96667 -49.00762,69.12613 -49.086,69.24323 -0.0784,0.11711 -3.66262,-1.99411 -7.965,-4.6916 l -7.82251,-4.90454 2.05714,-2.88453 c 1.13142,-1.58649 21.0929,-28.69754 44.35885,-60.24677 23.26595,-31.549228 42.31253,-57.757413 42.32575,-58.240412 0.0361,-1.320321 -20.95287,-10.984404 -30.8217,-14.191407 C 210.55759,13.007182 145.25521,26.293383 96.866414,65.279998 45.381209,106.76137 19.322109,169.2094 26.036677,235.01637 c 4.084677,40.03239 21.029016,80.71862 46.700057,112.13473 l 6.434652,7.87472 -5.456941,6.85782 c -8.465027,10.63814 -7.372669,10.6002 -16.795739,0.58342 z"
     id="path754" />
  <path
     style="fill:#000000;fill-opacity:0;stroke:none;stroke-width:0;stroke-opacity:1"
     d="M 56.918706,362.46706 C 37.194805,341.50043 21.598053,310.05108 11.883991,271.65888 7.2007699,253.14971 5.44964,241.53304 4.7091915,224.06259 2.785597,178.67648 12.781329,138.32049 33.88278,106.27941 64.621369,59.605013 101.35978,29.215087 141.90199,16.926191 186.94025,3.2744835 236.18959,3.4057046 276.2427,17.284132 c 15.68929,5.436348 44.45474,17.812856 44.9661,19.346936 0.2169,0.650695 -21.63021,32.246722 -48.54914,70.213392 -26.91892,37.96667 -49.00762,69.12613 -49.086,69.24323 -0.0784,0.11711 -3.66262,-1.99411 -7.965,-4.6916 l -7.82251,-4.90454 2.05714,-2.88453 c 1.13142,-1.58649 21.0929,-28.69754 44.35885,-60.24677 23.26595,-31.549228 42.31253,-57.757413 42.32575,-58.240412 0.0361,-1.320321 -20.95287,-10.984404 -30.8217,-14.191407 C 210.55759,13.007182 145.25521,26.293383 96.866414,65.279998 45.381209,106.76137 19.322109,169.2094 26.036677,235.01637 c 4.084677,40.03239 21.029016,80.71862 46.700057,112.13473 l 6.434652,7.87472 -5.456941,6.85782 c -8.465027,10.63814 -7.372669,10.6002 -16.795739,0.58342 z"
     id="path825" />
  <path
     style="fill:#000000;fill-opacity:0;stroke:none;stroke-width:0;stroke-opacity:1"
     d="M 56.918706,362.46706 C 37.194805,341.50043 21.598053,310.05108 11.883991,271.65888 7.2007699,253.14971 5.44964,241.53304 4.7091915,224.06259 2.785597,178.67648 12.781329,138.32049 33.88278,106.27941 64.621369,59.605013 101.35978,29.215087 141.90199,16.926191 186.94025,3.2744835 236.18959,3.4057046 276.2427,17.284132 c 15.68929,5.436348 44.45474,17.812856 44.9661,19.346936 0.2169,0.650695 -21.63021,32.246722 -48.54914,70.213392 -26.91892,37.96667 -49.00762,69.12613 -49.086,69.24323 -0.0784,0.11711 -3.66262,-1.99411 -7.965,-4.6916 l -7.82251,-4.90454 2.05714,-2.88453 c 1.13142,-1.58649 21.0929,-28.69754 44.35885,-60.24677 23.26595,-31.549228 42.31253,-57.757413 42.32575,-58.240412 0.0361,-1.320321 -20.95287,-10.984404 -30.8217,-14.191407 C 210.55759,13.007182 145.25521,26.293383 96.866414,65.279998 45.381209,106.76137 19.322109,169.2094 26.036677,235.01637 c 4.084677,40.03239 21.029016,80.71862 46.700057,112.13473 l 6.434652,7.87472 -5.456941,6.85782 c -8.465027,10.63814 -7.372669,10.6002 -16.795739,0.58342 z"
     id="path827" />
  <path
     style="fill:#000000;fill-opacity:0;stroke:none;stroke-width:0;stroke-opacity:1"
     d="M 56.918706,362.46706 C 37.194805,341.50043 21.598053,310.05108 11.883991,271.65888 7.2007699,253.14971 5.44964,241.53304 4.7091915,224.06259 2.785597,178.67648 12.781329,138.32049 33.88278,106.27941 64.621369,59.605013 101.35978,29.215087 141.90199,16.926191 186.94025,3.2744835 236.18959,3.4057046 276.2427,17.284132 c 15.68929,5.436348 44.45474,17.812856 44.9661,19.346936 0.2169,0.650695 -21.63021,32.246722 -48.54914,70.213392 -26.91892,37.96667 -49.00762,69.12613 -49.086,69.24323 -0.0784,0.11711 -3.66262,-1.99411 -7.965,-4.6916 l -7.82251,-4.90454 2.05714,-2.88453 c 1.13142,-1.58649 21.0929,-28.69754 44.35885,-60.24677 23.26595,-31.549228 42.31253,-57.757413 42.32575,-58.240412 0.0361,-1.320321 -20.95287,-10.984404 -30.8217,-14.191407 C 210.55759,13.007182 145.25521,26.293383 96.866414,65.279998 45.381209,106.76137 19.322109,169.2094 26.036677,235.01637 c 4.084677,40.03239 21.029016,80.71862 46.700057,112.13473 l 6.434652,7.87472 -5.456941,6.85782 c -8.465027,10.63814 -7.372669,10.6002 -16.795739,0.58342 z"
     id="path829" />
  <path
     style="fill:#000000;fill-opacity:0;stroke:none;stroke-width:0;stroke-opacity:1"
     d="M 56.918706,362.46706 C 37.194805,341.50043 21.598053,310.05108 11.883991,271.65888 7.2007699,253.14971 5.44964,241.53304 4.7091915,224.06259 2.8387026,179.92948 12.554057,139.37913 32.417014,108.41454 l 5.672137,-8.842359 h 12.406182 c 9.640157,0 12.223601,0.301628 11.587271,1.352879 -0.450398,0.74408 -3.089129,4.76215 -5.863844,8.92903 -38.002225,57.06916 -41.519473,132.04396 -9.240794,196.97974 7.631981,15.35344 15.776172,28.10061 25.758768,40.31727 l 6.434652,7.87472 -5.456941,6.85782 c -8.465027,10.63814 -7.372669,10.6002 -16.795739,0.58342 z"
     id="path2212" />
  <path
     style="opacity:1;fill:#00bd7e;fill-opacity:1;stroke:none;stroke-width:1.44271;stroke-dasharray:none;stroke-opacity:1"
     d="M 57.024639,360.48969 C 36.985589,337.78582 23.565575,310.49841 13.603567,272.20003 7.7577299,249.72603 6.6428299,240.62394 6.5773696,214.8378 6.4950715,182.41898 9.3860534,164.36026 18.619234,139.61751 23.590302,126.29621 26.952919,119.71986 35.221353,107.14832 47.040477,89.178231 54.615284,79.970129 71.351279,63.22801 94.283459,40.287437 113.49634,27.826276 138.61621,19.601088 162.19157,11.881627 183.31432,8.6471466 209.93903,8.6795796 c 26.24582,0.031973 46.93624,3.3232534 68.21368,10.8509364 10.82607,3.830121 39.56628,15.903786 40.89778,17.181015 0.46885,0.449736 -20.88975,31.458412 -47.46355,68.908159 -26.57381,37.44976 -48.39363,68.1782 -48.48851,68.28543 -0.33942,0.38363 -12.05386,-7.30149 -12.30023,-8.06942 -0.13833,-0.4312 19.6954,-27.81459 44.07499,-60.85199 49.4289,-66.98237 45.80919,-60.272301 35.39532,-65.614574 C 274.57008,31.315904 253.29807,24.875861 235.05906,22.654632 220.32679,20.860465 194.65821,21.88467 179.69579,24.863688 104.6335,39.808586 43.648331,99.372269 27.772004,173.24632 15.024127,232.5634 30.965945,297.57518 70.159454,346.10511 l 7.241647,8.96671 -5.572221,6.72673 c -3.064721,3.69971 -5.928579,6.86842 -6.364129,7.04158 -0.435549,0.17315 -4.2336,-3.58455 -8.440112,-8.35044 z"
     id="path8217" />
  <path
     style="opacity:1;fill:#00bd7e;fill-opacity:1;stroke:none;stroke-width:1.44271;stroke-dasharray:none;stroke-opacity:1"
     d="m 296.41411,281.48847 c -4.24267,-1.14853 -10.81768,-3.65382 -14.61113,-5.56728 -14.79104,-7.46084 -52.6439,-32.64552 -81.03517,-53.91523 -49.40403,-37.01171 -63.38745,-45.3886 -79.59906,-47.68444 -20.40586,-2.88983 -43.115006,8.65413 -50.384089,25.61221 -5.339984,12.45768 -4.582058,25.79305 2.266192,39.8726 5.705963,11.73109 15.001073,18.66944 30.395937,22.68911 17.6806,4.61649 32.44471,-2.10949 48.18846,-21.95287 3.89636,-4.91096 7.41318,-8.92872 7.81519,-8.92835 0.40199,3.8e-4 3.53569,2.20257 6.96378,4.89377 l 6.23288,4.89307 -1.86066,2.95296 c -11.0222,17.49271 -26.79035,30.16139 -42.8685,34.44205 -3.08953,0.82256 -10.09729,1.50134 -15.57279,1.50841 -29.056136,0.0375 -51.500599,-18.08431 -58.294661,-47.06747 -2.440129,-10.40949 -1.674168,-26.96388 1.626476,-35.15236 13.498659,-33.48846 54.266905,-46.84732 92.255125,-30.22997 18.63156,8.15008 55.04546,32.63969 110.73911,74.47588 31.90934,23.96978 40.95697,28.5283 56.82108,28.62838 10.94512,0.0691 16.90149,-2.30246 24.25683,-9.6578 4.96647,-4.96647 12.09992,-17.77792 15.32488,-27.52299 2.67739,-8.09043 2.69673,-20.57352 0.0428,-27.5988 -4.62587,-12.24502 -15.82301,-25.7593 -25.71746,-31.03942 -4.01721,-2.14376 -6.21491,-2.5007 -14.9893,-2.43449 -15.7661,0.11897 -22.99723,4.03411 -40.76192,22.06969 l -10.64763,10.80999 -5.30823,-4.63975 -5.30821,-4.63976 13.75991,-14.20219 c 7.56795,-7.81121 16.16729,-15.74701 19.10963,-17.6351 16.23684,-10.41915 40.05404,-9.88454 57.53712,1.29152 6.65418,4.25368 16.43352,14.87135 19.78035,21.47599 9.03713,17.83391 9.49868,43.31229 1.12753,62.24096 -6.51391,14.72911 -17.62986,25.91825 -30.76033,30.96287 -8.79868,3.38038 -26.07835,3.87658 -36.52409,1.04881 z"
     id="path8219" />
</svg>
