<?xml version="1.0" encoding="UTF-8" standalone="no"?>
<svg
   width="500"
   zoomAndPan="magnify"
   viewBox="0 0 375 374.999991"
   height="500"
   preserveAspectRatio="xMidYMid meet"
   version="1.0"
   id="svg129"
   sodipodi:docname="favicon.svg"
   inkscape:version="1.2.2 (b0a8486541, 2022-12-01)"
   xmlns:inkscape="http://www.inkscape.org/namespaces/inkscape"
   xmlns:sodipodi="http://sodipodi.sourceforge.net/DTD/sodipodi-0.dtd"
   xmlns="http://www.w3.org/2000/svg"
   xmlns:svg="http://www.w3.org/2000/svg">
  <sodipodi:namedview
     id="namedview131"
     pagecolor="#ffffff"
     bordercolor="#666666"
     borderopacity="1.0"
     inkscape:showpageshadow="2"
     inkscape:pageopacity="0.0"
     inkscape:pagecheckerboard="0"
     inkscape:deskcolor="#d1d1d1"
     showgrid="false"
     inkscape:zoom="0.98"
     inkscape:cx="234.69388"
     inkscape:cy="239.79592"
     inkscape:window-width="1366"
     inkscape:window-height="699"
     inkscape:window-x="0"
     inkscape:window-y="800"
     inkscape:window-maximized="1"
     inkscape:current-layer="svg129" />
  <defs
     id="defs121">
    <clipPath
       id="1cc90396b4">
      <path
         d="M 1.039062 0 L 375 0 L 375 374.25 L 1.039062 374.25 Z M 1.039062 0 "
         clip-rule="nonzero"
         id="path118" />
    </clipPath>
  </defs>
  <g
     clip-path="url(#1cc90396b4)"
     id="g125">
    <path
       fill="#ffffff"
       d="M 375.289062 187.125 C 375.289062 190.1875 375.214844 193.246094 375.0625 196.308594 C 374.914062 199.367188 374.6875 202.417969 374.386719 205.464844 C 374.089844 208.515625 373.714844 211.550781 373.265625 214.582031 C 372.816406 217.609375 372.292969 220.628906 371.695312 223.632812 C 371.097656 226.636719 370.425781 229.621094 369.679688 232.59375 C 368.9375 235.5625 368.121094 238.515625 367.230469 241.445312 C 366.34375 244.375 365.382812 247.28125 364.351562 250.164062 C 363.320312 253.050781 362.21875 255.90625 361.046875 258.734375 C 359.875 261.5625 358.632812 264.363281 357.324219 267.132812 C 356.015625 269.898438 354.636719 272.632812 353.195312 275.335938 C 351.75 278.035156 350.242188 280.699219 348.667969 283.328125 C 347.09375 285.953125 345.453125 288.539062 343.753906 291.085938 C 342.050781 293.632812 340.289062 296.136719 338.464844 298.59375 C 336.640625 301.054688 334.757812 303.46875 332.8125 305.835938 C 330.871094 308.203125 328.871094 310.519531 326.816406 312.789062 C 324.757812 315.058594 322.648438 317.277344 320.480469 319.441406 C 318.316406 321.609375 316.097656 323.71875 313.828125 325.777344 C 311.5625 327.832031 309.242188 329.832031 306.875 331.773438 C 304.507812 333.71875 302.09375 335.601562 299.632812 337.425781 C 297.175781 339.25 294.671875 341.011719 292.125 342.714844 C 289.578125 344.414062 286.992188 346.054688 284.367188 347.628906 C 281.738281 349.203125 279.074219 350.710938 276.375 352.15625 C 273.671875 353.597656 270.9375 354.972656 268.171875 356.285156 C 265.402344 357.59375 262.601562 358.832031 259.773438 360.007812 C 256.945312 361.179688 254.089844 362.28125 251.203125 363.3125 C 248.320312 364.34375 245.414062 365.304688 242.484375 366.191406 C 239.554688 367.082031 236.601562 367.898438 233.632812 368.640625 C 230.660156 369.386719 227.675781 370.058594 224.671875 370.65625 C 221.667969 371.25 218.652344 371.773438 215.621094 372.222656 C 212.59375 372.675781 209.554688 373.046875 206.507812 373.347656 C 203.457031 373.648438 200.40625 373.875 197.347656 374.023438 C 194.289062 374.175781 191.226562 374.25 188.164062 374.25 C 185.101562 374.25 182.042969 374.175781 178.984375 374.023438 C 175.925781 373.875 172.871094 373.648438 169.824219 373.347656 C 166.773438 373.046875 163.738281 372.675781 160.707031 372.222656 C 157.679688 371.773438 154.660156 371.25 151.65625 370.65625 C 148.65625 370.058594 145.667969 369.386719 142.695312 368.640625 C 139.726562 367.898438 136.777344 367.082031 133.84375 366.191406 C 130.914062 365.304688 128.007812 364.34375 125.125 363.3125 C 122.242188 362.28125 119.382812 361.179688 116.554688 360.007812 C 113.726562 358.832031 110.925781 357.59375 108.15625 356.285156 C 105.390625 354.972656 102.65625 353.597656 99.953125 352.15625 C 97.253906 350.710938 94.589844 349.203125 91.964844 347.628906 C 89.335938 346.054688 86.75 344.414062 84.203125 342.714844 C 81.65625 341.011719 79.152344 339.25 76.695312 337.425781 C 74.234375 335.601562 71.820312 333.71875 69.453125 331.773438 C 67.085938 329.832031 64.769531 327.832031 62.5 325.777344 C 60.230469 323.71875 58.011719 321.609375 55.847656 319.441406 C 53.679688 317.277344 51.570312 315.058594 49.515625 312.789062 C 47.457031 310.519531 45.457031 308.203125 43.515625 305.835938 C 41.570312 303.46875 39.6875 301.054688 37.863281 298.59375 C 36.039062 296.136719 34.277344 293.632812 32.574219 291.085938 C 30.875 288.539062 29.238281 285.953125 27.660156 283.328125 C 26.085938 280.699219 24.578125 278.035156 23.136719 275.335938 C 21.691406 272.632812 20.316406 269.898438 19.003906 267.132812 C 17.695312 264.363281 16.457031 261.5625 15.285156 258.734375 C 14.113281 255.90625 13.007812 253.050781 11.976562 250.164062 C 10.945312 247.28125 9.984375 244.375 9.097656 241.445312 C 8.207031 238.515625 7.390625 235.5625 6.648438 232.59375 C 5.902344 229.621094 5.234375 226.636719 4.636719 223.632812 C 4.039062 220.628906 3.515625 217.609375 3.066406 214.582031 C 2.617188 211.550781 2.242188 208.515625 1.941406 205.464844 C 1.640625 202.417969 1.414062 199.367188 1.265625 196.308594 C 1.113281 193.246094 1.039062 190.1875 1.039062 187.125 C 1.039062 184.0625 1.113281 181.003906 1.265625 177.941406 C 1.414062 174.882812 1.640625 171.832031 1.941406 168.785156 C 2.242188 165.734375 2.617188 162.699219 3.066406 159.667969 C 3.515625 156.640625 4.039062 153.621094 4.636719 150.617188 C 5.234375 147.613281 5.902344 144.628906 6.648438 141.65625 C 7.390625 138.6875 8.207031 135.734375 9.097656 132.804688 C 9.984375 129.875 10.945312 126.96875 11.976562 124.085938 C 13.007812 121.199219 14.113281 118.34375 15.285156 115.515625 C 16.457031 112.6875 17.695312 109.886719 19.003906 107.117188 C 20.316406 104.351562 21.691406 101.617188 23.136719 98.914062 C 24.578125 96.214844 26.085938 93.550781 27.660156 90.921875 C 29.238281 88.296875 30.875 85.710938 32.574219 83.164062 C 34.277344 80.617188 36.039062 78.113281 37.863281 75.65625 C 39.6875 73.195312 41.570312 70.78125 43.515625 68.414062 C 45.457031 66.046875 47.457031 63.730469 49.515625 61.460938 C 51.570312 59.191406 53.679688 56.972656 55.847656 54.808594 C 58.011719 52.640625 60.230469 50.53125 62.5 48.472656 C 64.769531 46.417969 67.085938 44.417969 69.453125 42.476562 C 71.820312 40.53125 74.234375 38.648438 76.695312 36.824219 C 79.152344 35 81.65625 33.238281 84.203125 31.535156 C 86.75 29.835938 89.335938 28.195312 91.964844 26.621094 C 94.589844 25.046875 97.253906 23.539062 99.953125 22.09375 C 102.65625 20.652344 105.390625 19.273438 108.15625 17.964844 C 110.925781 16.65625 113.726562 15.414062 116.554688 14.242188 C 119.382812 13.070312 122.242188 11.96875 125.125 10.9375 C 128.007812 9.90625 130.914062 8.945312 133.84375 8.058594 C 136.777344 7.167969 139.726562 6.351562 142.695312 5.609375 C 145.667969 4.863281 148.65625 4.191406 151.65625 3.59375 C 154.660156 3 157.679688 2.476562 160.707031 2.023438 C 163.738281 1.574219 166.773438 1.203125 169.824219 0.902344 C 172.871094 0.601562 175.925781 0.375 178.984375 0.226562 C 182.042969 0.0742188 185.101562 0 188.164062 0 C 191.226562 0 194.289062 0.0742188 197.347656 0.226562 C 200.40625 0.375 203.457031 0.601562 206.507812 0.902344 C 209.554688 1.203125 212.59375 1.574219 215.621094 2.023438 C 218.652344 2.476562 221.667969 3 224.671875 3.59375 C 227.675781 4.191406 230.660156 4.863281 233.632812 5.609375 C 236.601562 6.351562 239.554688 7.167969 242.484375 8.058594 C 245.414062 8.945312 248.320312 9.90625 251.203125 10.9375 C 254.089844 11.96875 256.945312 13.070312 259.773438 14.242188 C 262.601562 15.414062 265.402344 16.65625 268.171875 17.964844 C 270.9375 19.273438 273.671875 20.652344 276.375 22.09375 C 279.074219 23.539062 281.738281 25.046875 284.367188 26.621094 C 286.992188 28.195312 289.578125 29.835938 292.125 31.535156 C 294.671875 33.238281 297.175781 35 299.632812 36.824219 C 302.09375 38.648438 304.507812 40.53125 306.875 42.476562 C 309.242188 44.417969 311.5625 46.417969 313.828125 48.472656 C 316.097656 50.53125 318.316406 52.640625 320.480469 54.808594 C 322.648438 56.972656 324.757812 59.191406 326.816406 61.460938 C 328.871094 63.730469 330.871094 66.046875 332.8125 68.414062 C 334.757812 70.78125 336.640625 73.195312 338.464844 75.65625 C 340.289062 78.113281 342.050781 80.617188 343.753906 83.164062 C 345.453125 85.710938 347.09375 88.296875 348.667969 90.921875 C 350.242188 93.550781 351.75 96.214844 353.195312 98.914062 C 354.636719 101.617188 356.015625 104.351562 357.324219 107.117188 C 358.632812 109.886719 359.875 112.6875 361.046875 115.515625 C 362.21875 118.34375 363.320312 121.199219 364.351562 124.085938 C 365.382812 126.96875 366.34375 129.875 367.230469 132.804688 C 368.121094 135.734375 368.9375 138.6875 369.679688 141.65625 C 370.425781 144.628906 371.097656 147.613281 371.695312 150.617188 C 372.292969 153.621094 372.816406 156.640625 373.265625 159.667969 C 373.714844 162.699219 374.089844 165.734375 374.386719 168.785156 C 374.6875 171.832031 374.914062 174.882812 375.0625 177.941406 C 375.214844 181.003906 375.289062 184.0625 375.289062 187.125 Z M 375.289062 187.125 "
       fill-opacity="1"
       fill-rule="nonzero"
       id="path123" />
  </g>
  <path
     fill="#545454"
     d="M 201.328125 36.113281 C 157.839844 37.054688 108.800781 46.695312 64.171875 111.820312 C 15.160156 182.648438 46.089844 288.183594 89.136719 323.15625 L 101.265625 308.359375 C 70.363281 277.007812 32.433594 195.792969 80.308594 121.632812 C 114.734375 63.332031 202.875 28.042969 271.671875 66.789062 L 187.328125 179.195312 C 135.28125 141.847656 106.148438 148.546875 82.328125 180.460938 C 70 202.511719 78.332031 227.296875 94.820312 241.910156 C 130.4375 266.160156 161.1875 247.117188 176.660156 219.226562 L 163.09375 208.789062 C 138.148438 246.253906 120.390625 238.007812 102.972656 227.691406 C 81.015625 201.621094 93.402344 172.480469 125.882812 168.742188 C 140.722656 167.714844 159.90625 178.046875 198.941406 209.871094 L 220.644531 225.308594 C 256.753906 247.277344 263.457031 253.796875 281.554688 255.289062 C 281.554688 255.289062 292.160156 257.960938 306.992188 251.074219 C 313.96875 247.835938 323.769531 239.816406 329.214844 224.125 C 339.800781 196.398438 327.171875 176.03125 323.460938 171.257812 C 303.542969 145.65625 275.878906 152.046875 270.976562 153.757812 C 266.859375 155.195312 268.523438 154.457031 264.496094 156.308594 C 264.386719 156.359375 259.828125 158.828125 256.644531 161.714844 C 252.769531 165.230469 254.023438 163.703125 248.628906 169.246094 C 237.417969 180.765625 234.066406 185.582031 234.066406 185.582031 L 245.460938 194.957031 C 261.738281 178.398438 277.011719 157.804688 300.960938 171.898438 C 322.742188 187.804688 321.851562 211.148438 312.054688 224.183594 C 302.667969 240.4375 292.488281 243.109375 277.046875 238.996094 C 263.285156 235.332031 237.078125 213.421875 201.476562 188.859375 L 294.351562 60.097656 C 290.523438 57.726562 274.257812 50.914062 268.40625 48.476562 C 251.011719 41.238281 227.421875 35.550781 201.328125 36.113281 Z M 348.277344 230.746094 C 348.261719 230.820312 348.238281 230.894531 348.226562 230.964844 L 348.3125 230.914062 Z M 348.277344 230.746094 "
     fill-opacity="1"
     fill-rule="nonzero"
     id="path127" />
  <rect
     style="fill:#ffffff;stroke:#fadb41;stroke-width:0"
     id="rect289"
     width="24.933626"
     height="21.917994"
     x="255.48399"
     y="28.94451"
     ry="0"
     transform="matrix(0.84332048,0.53741098,-0.56880005,0.82247584,0,0)" />
</svg>
