<svg xmlns="http://www.w3.org/2000/svg" xmlns:xlink="http://www.w3.org/1999/xlink" width="1080" zoomAndPan="magnify" viewBox="0 0 810 809.999993" height="1080" preserveAspectRatio="xMidYMid meet" version="1.0"><defs><clipPath id="a0e50c8a63"><path d="M 8.285156 8.285156 L 801.855469 8.285156 L 801.855469 801.855469 L 8.285156 801.855469 Z M 8.285156 8.285156 " clip-rule="nonzero"/></clipPath><clipPath id="2dad49f871"><path d="M 43.996094 41.320312 L 765.914062 41.320312 L 765.914062 763.238281 L 43.996094 763.238281 Z M 43.996094 41.320312 " clip-rule="nonzero"/></clipPath></defs><g clip-path="url(#a0e50c8a63)"><path fill="#095d62" d="M 801.855469 405.070312 C 801.855469 411.5625 801.695312 418.050781 801.375 424.539062 C 801.058594 431.023438 800.578125 437.5 799.945312 443.960938 C 799.308594 450.421875 798.511719 456.867188 797.558594 463.289062 C 796.605469 469.710938 795.496094 476.109375 794.230469 482.476562 C 792.964844 488.847656 791.539062 495.179688 789.960938 501.480469 C 788.386719 507.777344 786.652344 514.035156 784.769531 520.25 C 782.882812 526.464844 780.847656 532.628906 778.660156 538.742188 C 776.472656 544.855469 774.136719 550.914062 771.652344 556.910156 C 769.164062 562.910156 766.535156 568.847656 763.757812 574.714844 C 760.980469 580.585938 758.0625 586.386719 755.003906 592.113281 C 751.941406 597.839844 748.742188 603.488281 745.402344 609.058594 C 742.0625 614.625 738.589844 620.113281 734.984375 625.511719 C 731.375 630.910156 727.636719 636.21875 723.769531 641.433594 C 719.902344 646.648438 715.90625 651.765625 711.789062 656.785156 C 707.667969 661.804688 703.429688 666.722656 699.066406 671.535156 C 694.707031 676.34375 690.230469 681.046875 685.636719 685.636719 C 681.046875 690.230469 676.34375 694.707031 671.535156 699.066406 C 666.722656 703.429688 661.804688 707.667969 656.785156 711.789062 C 651.765625 715.90625 646.648438 719.902344 641.433594 723.769531 C 636.21875 727.636719 630.910156 731.375 625.511719 734.984375 C 620.113281 738.589844 614.628906 742.0625 609.058594 745.402344 C 603.488281 748.742188 597.839844 751.941406 592.113281 755.003906 C 586.386719 758.0625 580.585938 760.980469 574.714844 763.757812 C 568.847656 766.535156 562.910156 769.164062 556.910156 771.652344 C 550.914062 774.136719 544.855469 776.472656 538.742188 778.660156 C 532.628906 780.847656 526.464844 782.882812 520.25 784.769531 C 514.035156 786.652344 507.777344 788.386719 501.480469 789.960938 C 495.179688 791.539062 488.847656 792.964844 482.476562 794.230469 C 476.109375 795.496094 469.710938 796.605469 463.289062 797.558594 C 456.867188 798.511719 450.421875 799.308594 443.960938 799.945312 C 437.5 800.578125 431.023438 801.058594 424.539062 801.375 C 418.050781 801.695312 411.5625 801.855469 405.070312 801.855469 C 398.574219 801.855469 392.085938 801.695312 385.597656 801.375 C 379.113281 801.058594 372.640625 800.578125 366.175781 799.945312 C 359.714844 799.308594 353.273438 798.511719 346.847656 797.558594 C 340.425781 796.605469 334.027344 795.496094 327.660156 794.230469 C 321.289062 792.964844 314.957031 791.539062 308.65625 789.960938 C 302.359375 788.386719 296.101562 786.652344 289.886719 784.769531 C 283.675781 782.882812 277.511719 780.847656 271.394531 778.660156 C 265.28125 776.472656 259.226562 774.136719 253.226562 771.652344 C 247.226562 769.164062 241.292969 766.535156 235.421875 763.757812 C 229.550781 760.980469 223.753906 758.0625 218.027344 755.003906 C 212.296875 751.941406 206.648438 748.742188 201.082031 745.402344 C 195.511719 742.0625 190.027344 738.589844 184.625 734.984375 C 179.226562 731.375 173.917969 727.636719 168.703125 723.769531 C 163.488281 719.902344 158.371094 715.90625 153.351562 711.789062 C 148.332031 707.667969 143.414062 703.429688 138.605469 699.066406 C 133.792969 694.707031 129.089844 690.230469 124.5 685.636719 C 119.90625 681.046875 115.429688 676.34375 111.070312 671.535156 C 106.710938 666.722656 102.46875 661.804688 98.347656 656.785156 C 94.230469 651.765625 90.234375 646.648438 86.367188 641.433594 C 82.5 636.21875 78.761719 630.910156 75.152344 625.511719 C 71.546875 620.113281 68.074219 614.625 64.734375 609.058594 C 61.394531 603.488281 58.195312 597.839844 55.136719 592.113281 C 52.074219 586.386719 49.15625 580.585938 46.378906 574.714844 C 43.601562 568.847656 40.972656 562.910156 38.488281 556.910156 C 36 550.914062 33.664062 544.855469 31.476562 538.742188 C 29.289062 532.628906 27.253906 526.464844 25.367188 520.25 C 23.484375 514.035156 21.753906 507.777344 20.175781 501.480469 C 18.597656 495.179688 17.175781 488.847656 15.90625 482.476562 C 14.640625 476.109375 13.53125 469.710938 12.578125 463.289062 C 11.625 456.867188 10.832031 450.421875 10.195312 443.960938 C 9.558594 437.5 9.078125 431.023438 8.761719 424.539062 C 8.441406 418.050781 8.285156 411.5625 8.285156 405.070312 C 8.285156 398.574219 8.441406 392.085938 8.761719 385.597656 C 9.078125 379.113281 9.558594 372.640625 10.195312 366.175781 C 10.832031 359.714844 11.625 353.273438 12.578125 346.847656 C 13.53125 340.425781 14.640625 334.027344 15.90625 327.660156 C 17.175781 321.289062 18.597656 314.957031 20.175781 308.65625 C 21.753906 302.359375 23.484375 296.101562 25.367188 289.886719 C 27.253906 283.675781 29.289062 277.511719 31.476562 271.394531 C 33.664062 265.28125 36 259.226562 38.488281 253.226562 C 40.972656 247.226562 43.601562 241.292969 46.378906 235.421875 C 49.15625 229.550781 52.074219 223.753906 55.136719 218.027344 C 58.195312 212.296875 61.394531 206.648438 64.734375 201.082031 C 68.074219 195.511719 71.546875 190.027344 75.152344 184.625 C 78.761719 179.226562 82.5 173.917969 86.367188 168.703125 C 90.234375 163.488281 94.230469 158.371094 98.347656 153.351562 C 102.46875 148.332031 106.710938 143.414062 111.070312 138.605469 C 115.429688 133.792969 119.90625 129.089844 124.5 124.5 C 129.089844 119.90625 133.792969 115.429688 138.605469 111.070312 C 143.414062 106.710938 148.332031 102.46875 153.351562 98.351562 C 158.371094 94.230469 163.488281 90.234375 168.703125 86.367188 C 173.917969 82.5 179.226562 78.761719 184.625 75.152344 C 190.027344 71.546875 195.511719 68.074219 201.082031 64.734375 C 206.648438 61.394531 212.296875 58.195312 218.027344 55.136719 C 223.753906 52.074219 229.550781 49.15625 235.421875 46.378906 C 241.292969 43.601562 247.226562 40.972656 253.226562 38.488281 C 259.226562 36.003906 265.28125 33.664062 271.394531 31.476562 C 277.511719 29.289062 283.675781 27.253906 289.886719 25.367188 C 296.101562 23.484375 302.359375 21.753906 308.65625 20.175781 C 314.957031 18.597656 321.289062 17.175781 327.660156 15.90625 C 334.027344 14.640625 340.425781 13.53125 346.847656 12.578125 C 353.273438 11.625 359.714844 10.832031 366.175781 10.195312 C 372.640625 9.558594 379.113281 9.082031 385.597656 8.761719 C 392.085938 8.441406 398.574219 8.285156 405.070312 8.285156 C 411.5625 8.285156 418.050781 8.441406 424.539062 8.761719 C 431.023438 9.082031 437.5 9.558594 443.960938 10.195312 C 450.421875 10.832031 456.867188 11.625 463.289062 12.578125 C 469.710938 13.53125 476.109375 14.640625 482.476562 15.90625 C 488.847656 17.175781 495.179688 18.597656 501.480469 20.175781 C 507.777344 21.753906 514.035156 23.484375 520.25 25.367188 C 526.464844 27.253906 532.628906 29.289062 538.742188 31.476562 C 544.855469 33.664062 550.914062 36.003906 556.910156 38.488281 C 562.910156 40.972656 568.847656 43.601562 574.714844 46.378906 C 580.585938 49.15625 586.386719 52.074219 592.113281 55.136719 C 597.839844 58.195312 603.488281 61.394531 609.058594 64.734375 C 614.628906 68.074219 620.113281 71.546875 625.511719 75.152344 C 630.910156 78.761719 636.21875 82.5 641.433594 86.367188 C 646.648438 90.234375 651.765625 94.230469 656.785156 98.351562 C 661.804688 102.46875 666.722656 106.710938 671.535156 111.070312 C 676.34375 115.429688 681.046875 119.90625 685.636719 124.5 C 690.230469 129.089844 694.707031 133.792969 699.066406 138.605469 C 703.429688 143.414062 707.667969 148.332031 711.789062 153.351562 C 715.90625 158.371094 719.902344 163.488281 723.769531 168.703125 C 727.636719 173.917969 731.375 179.226562 734.984375 184.625 C 738.589844 190.027344 742.0625 195.511719 745.402344 201.082031 C 748.742188 206.648438 751.941406 212.296875 755.003906 218.027344 C 758.0625 223.753906 760.980469 229.550781 763.757812 235.421875 C 766.535156 241.292969 769.164062 247.226562 771.652344 253.226562 C 774.136719 259.226562 776.472656 265.28125 778.660156 271.394531 C 780.847656 277.511719 782.882812 283.675781 784.769531 289.886719 C 786.652344 296.101562 788.386719 302.359375 789.964844 308.65625 C 791.539062 314.957031 792.964844 321.289062 794.230469 327.660156 C 795.496094 334.027344 796.605469 340.425781 797.558594 346.847656 C 798.511719 353.273438 799.308594 359.714844 799.945312 366.175781 C 800.578125 372.640625 801.058594 379.113281 801.375 385.597656 C 801.695312 392.085938 801.855469 398.574219 801.855469 405.070312 Z M 801.855469 405.070312 " fill-opacity="1" fill-rule="nonzero"/></g><path fill="#fadb41" d="M 415.757812 173.382812 C 351.179688 174.78125 278.363281 189.09375 212.09375 285.796875 C 139.320312 390.972656 185.242188 547.679688 249.167969 599.609375 L 267.175781 577.636719 C 221.285156 531.082031 164.96875 410.488281 236.054688 300.367188 C 287.175781 213.800781 418.054688 161.398438 520.210938 218.929688 L 394.972656 385.84375 C 317.679688 330.382812 274.425781 340.335938 239.054688 387.722656 C 220.746094 420.460938 233.121094 457.269531 257.605469 478.96875 C 310.492188 514.972656 356.15625 486.695312 379.128906 445.285156 L 358.980469 429.785156 C 321.941406 485.417969 295.570312 473.171875 269.707031 457.851562 C 237.109375 419.144531 255.5 375.875 303.730469 370.316406 C 325.765625 368.796875 354.25 384.136719 412.214844 431.390625 L 444.441406 454.316406 C 498.058594 486.933594 508.011719 496.621094 534.882812 498.832031 C 534.882812 498.832031 550.632812 502.796875 572.65625 492.574219 C 583.015625 487.769531 597.570312 475.859375 605.65625 452.558594 C 621.375 411.386719 602.621094 381.140625 597.109375 374.054688 C 567.535156 336.039062 526.460938 345.53125 519.175781 348.070312 C 513.0625 350.203125 515.53125 349.109375 509.558594 351.859375 C 509.394531 351.933594 502.625 355.597656 497.898438 359.882812 C 492.140625 365.109375 494.003906 362.839844 485.992188 371.070312 C 469.34375 388.171875 464.367188 395.324219 464.367188 395.324219 L 481.292969 409.242188 C 505.460938 384.660156 528.140625 354.078125 563.703125 375.007812 C 596.046875 398.628906 594.722656 433.289062 580.171875 452.648438 C 566.238281 476.78125 551.121094 480.75 528.191406 474.644531 C 507.757812 469.199219 468.839844 436.664062 415.980469 400.191406 L 553.886719 208.996094 C 548.203125 205.472656 524.050781 195.355469 515.363281 191.742188 C 489.53125 180.992188 454.503906 172.542969 415.757812 173.382812 Z M 633.960938 462.390625 C 633.9375 462.503906 633.90625 462.605469 633.882812 462.714844 L 634.007812 462.640625 Z M 633.960938 462.390625 " fill-opacity="1" fill-rule="nonzero"/><g clip-path="url(#2dad49f871)"><path stroke-linecap="butt" transform="matrix(45.119885, 0, 0, 45.119885, 43.995203, 41.321711)" fill="none" stroke-linejoin="miter" d="M 15.484029 8.012996 C 15.484029 8.133768 15.480999 8.254454 15.475112 8.375053 C 15.469225 8.495652 15.460308 8.615991 15.448447 8.736157 C 15.436673 8.856323 15.421868 8.976142 15.40412 9.095616 C 15.386459 9.215002 15.365768 9.333956 15.342219 9.452391 C 15.318671 9.570825 15.292266 9.688567 15.262917 9.805703 C 15.233568 9.922839 15.201362 10.039196 15.166299 10.154687 C 15.131236 10.270264 15.093403 10.384889 15.052713 10.498562 C 15.012023 10.612235 14.968562 10.724869 14.922418 10.836464 C 14.876187 10.947972 14.827272 11.058355 14.775673 11.167526 C 14.723988 11.276611 14.669705 11.384483 14.612826 11.49097 C 14.555859 11.597457 14.496382 11.702473 14.434308 11.806016 C 14.372234 11.909647 14.307649 12.011632 14.240554 12.111972 C 14.173458 12.212399 14.104025 12.311094 14.032081 12.408058 C 13.960137 12.505022 13.885856 12.600255 13.809237 12.693582 C 13.732705 12.78691 13.653835 12.878333 13.572715 12.967765 C 13.491681 13.057197 13.408396 13.144638 13.323033 13.230001 C 13.23767 13.31545 13.150229 13.398648 13.060797 13.479769 C 12.971279 13.560803 12.879856 13.639673 12.786528 13.716292 C 12.6932 13.792911 12.598054 13.867105 12.501091 13.939049 C 12.40404 14.010993 12.305431 14.080512 12.205004 14.147608 C 12.104577 14.214704 12.002592 14.279202 11.899049 14.341276 C 11.795505 14.403437 11.69049 14.462914 11.584002 14.519794 C 11.477515 14.57676 11.369643 14.631042 11.260472 14.682641 C 11.151388 14.73424 11.041005 14.783154 10.92941 14.829385 C 10.817901 14.875616 10.705267 14.91899 10.591594 14.959681 C 10.477921 15.000371 10.363296 15.038291 10.247719 15.073267 C 10.132141 15.10833 10.015871 15.140536 9.898735 15.169885 C 9.781599 15.199233 9.663771 15.225639 9.545337 15.249274 C 9.426989 15.272822 9.308035 15.293427 9.188561 15.311175 C 9.069174 15.328836 8.949355 15.34364 8.829189 15.355501 C 8.709023 15.367275 8.588597 15.376193 8.467998 15.38208 C 8.347399 15.388053 8.226714 15.390997 8.106029 15.390997 C 7.985257 15.390997 7.864571 15.388053 7.743972 15.38208 C 7.623373 15.376193 7.503034 15.367275 7.382868 15.355501 C 7.262702 15.34364 7.142883 15.328836 7.023409 15.311175 C 6.904023 15.293427 6.785069 15.272822 6.666634 15.249274 C 6.5482 15.225639 6.430458 15.199233 6.313322 15.169885 C 6.196186 15.140536 6.079829 15.10833 5.964252 15.073267 C 5.848761 15.038291 5.734136 15.000371 5.620463 14.959681 C 5.506704 14.91899 5.394156 14.875616 5.282561 14.829385 C 5.170966 14.783154 5.06067 14.73424 4.951499 14.682641 C 4.842328 14.631042 4.734542 14.57676 4.628055 14.519794 C 4.521568 14.462914 4.416552 14.403437 4.312922 14.341276 C 4.209378 14.279202 4.107393 14.214704 4.006966 14.147608 C 3.906626 14.080512 3.807931 14.010993 3.710967 13.939049 C 3.613916 13.867105 3.51877 13.792911 3.425443 13.716292 C 3.332115 13.639673 3.240692 13.560803 3.15126 13.479769 C 3.061741 13.398648 2.974387 13.31545 2.888938 13.230001 C 2.803575 13.144638 2.720377 13.057197 2.639256 12.967765 C 2.558135 12.878333 2.479352 12.78691 2.402733 12.693582 C 2.326114 12.600255 2.251833 12.505022 2.179976 12.408058 C 2.108032 12.311094 2.038513 12.212399 1.971417 12.111972 C 1.904321 12.011632 1.839737 11.909647 1.777662 11.806016 C 1.715588 11.702473 1.656111 11.597457 1.599145 11.49097 C 1.542265 11.384483 1.487983 11.276697 1.436384 11.167526 C 1.384699 11.058355 1.335784 10.947972 1.28964 10.836464 C 1.243409 10.724869 1.199948 10.612235 1.159258 10.498562 C 1.118568 10.384889 1.080734 10.270264 1.045672 10.154687 C 1.010609 10.039196 0.978489 9.922839 0.94914 9.805703 C 0.919792 9.688567 0.8933 9.570825 0.869751 9.452391 C 0.846203 9.333956 0.825598 9.215002 0.80785 9.095616 C 0.790102 8.976142 0.775385 8.856323 0.763524 8.736157 C 0.751663 8.615991 0.742832 8.495652 0.736859 8.375053 C 0.730972 8.254454 0.728028 8.133768 0.728028 8.012996 C 0.728028 7.892224 0.730972 7.771539 0.736859 7.65094 C 0.742832 7.530341 0.751663 7.410002 0.763524 7.289836 C 0.775385 7.16967 0.790102 7.049851 0.80785 6.930464 C 0.825598 6.81099 0.846203 6.692036 0.869751 6.573602 C 0.8933 6.455167 0.919792 6.337426 0.94914 6.22029 C 0.978489 6.103154 1.010609 5.986797 1.045672 5.871306 C 1.080734 5.755729 1.118568 5.641104 1.159258 5.527431 C 1.199948 5.413758 1.243409 5.301124 1.28964 5.189529 C 1.335784 5.07802 1.384699 4.967637 1.436384 4.858466 C 1.487983 4.749382 1.542265 4.64151 1.599145 4.535023 C 1.656111 4.428535 1.715588 4.32352 1.777662 4.219976 C 1.839737 4.116346 1.904321 4.014361 1.971417 3.914021 C 2.038513 3.813594 2.108032 3.714898 2.179976 3.617935 C 2.251833 3.520971 2.326114 3.425825 2.402733 3.33241 C 2.479352 3.239083 2.558135 3.147746 2.639256 3.058228 C 2.720377 2.968796 2.803575 2.881355 2.888938 2.795992 C 2.974387 2.710543 3.061741 2.627344 3.15126 2.546224 C 3.240692 2.46519 3.332115 2.38632 3.425443 2.309701 C 3.51877 2.233169 3.613916 2.158888 3.710967 2.086944 C 3.807931 2.015 3.906626 1.94548 4.006966 1.878385 C 4.107393 1.811376 4.209378 1.746791 4.312922 1.684717 C 4.416552 1.622643 4.521568 1.563079 4.628055 1.506199 C 4.734542 1.449233 4.842328 1.394951 4.951499 1.343352 C 5.06067 1.291753 5.170966 1.242838 5.282561 1.196607 C 5.394156 1.150376 5.506704 1.107002 5.620463 1.066312 C 5.734136 1.025622 5.848761 0.987702 5.964252 0.952726 C 6.079829 0.917663 6.196186 0.885457 6.313322 0.856108 C 6.430458 0.826759 6.5482 0.800354 6.666634 0.776806 C 6.785069 0.753171 6.904023 0.732566 7.023409 0.714818 C 7.142883 0.697157 7.262702 0.682352 7.382868 0.670492 C 7.503034 0.658718 7.623373 0.6498 7.743972 0.643913 C 7.864571 0.63794 7.985257 0.634996 8.106029 0.634996 C 8.226714 0.634996 8.347399 0.63794 8.467998 0.643913 C 8.588597 0.6498 8.709023 0.658718 8.829189 0.670492 C 8.949355 0.682352 9.069174 0.697157 9.188561 0.714818 C 9.308035 0.732566 9.426989 0.753171 9.545337 0.776806 C 9.663771 0.800354 9.781599 0.826759 9.898735 0.856108 C 10.015871 0.885457 10.132141 0.917663 10.247719 0.952726 C 10.363296 0.987702 10.477921 1.025622 10.591594 1.066312 C 10.705267 1.107002 10.817901 1.150376 10.92941 1.196607 C 11.041005 1.242838 11.151388 1.291753 11.260472 1.343352 C 11.369643 1.394951 11.477515 1.449233 11.584002 1.506199 C 11.69049 1.563079 11.795505 1.622643 11.899049 1.684717 C 12.002592 1.746791 12.104577 1.811376 12.205004 1.878385 C 12.305431 1.94548 12.40404 2.015 12.501091 2.086944 C 12.598054 2.158888 12.6932 2.233169 12.786528 2.309701 C 12.879856 2.38632 12.971279 2.46519 13.060797 2.546224 C 13.150229 2.627344 13.23767 2.710543 13.323033 2.795992 C 13.408396 2.881355 13.491681 2.968796 13.572715 3.058228 C 13.653835 3.147746 13.732705 3.239083 13.809237 3.33241 C 13.885856 3.425825 13.960137 3.520971 14.032081 3.617935 C 14.104025 3.714898 14.173458 3.813594 14.240554 3.914021 C 14.307649 4.014361 14.372234 4.116346 14.434308 4.219976 C 14.496382 4.32352 14.555859 4.428535 14.612826 4.535023 C 14.669705 4.64151 14.723988 4.749382 14.775673 4.858466 C 14.827272 4.967637 14.876187 5.07802 14.922418 5.189529 C 14.968562 5.301124 15.012023 5.413758 15.052713 5.527431 C 15.093403 5.641104 15.131236 5.755729 15.166299 5.871306 C 15.201362 5.986797 15.233568 6.103154 15.262917 6.22029 C 15.292266 6.337426 15.318671 6.455167 15.342219 6.573602 C 15.365768 6.692036 15.386459 6.81099 15.40412 6.930464 C 15.421868 7.049851 15.436673 7.16967 15.448447 7.289836 C 15.460308 7.410002 15.469225 7.530341 15.475112 7.65094 C 15.480999 7.771539 15.484029 7.892224 15.484029 8.012996 Z M 15.484029 8.012996 " stroke="#fadb41" stroke-width="0.562" stroke-opacity="1" stroke-miterlimit="4"/></g></svg>